<mxfile host="app.diagrams.net" modified="2021-04-09T02:43:59.798Z" agent="5.0 (Windows NT 10.0; Win64; x64) AppleWebKit/537.36 (KHTML, like Gecko) Chrome/89.0.4389.114 Safari/537.36" etag="L57O4Rm1xIWSfHU-RmQM" version="14.5.8" type="github">
  <diagram id="bwJocp46GtlEM1BUu3Q2" name="第 1 页">
    <mxGraphModel dx="1504" dy="645" grid="1" gridSize="10" guides="1" tooltips="1" connect="1" arrows="1" fold="1" page="1" pageScale="1" pageWidth="827" pageHeight="1169" math="0" shadow="0">
      <root>
        <mxCell id="0" />
        <mxCell id="1" parent="0" />
        <mxCell id="QmwEEpF4zXc-ardIhflR-2" value="&lt;font style=&quot;font-size: 36px&quot;&gt;我的空间管理&lt;/font&gt;" style="text;html=1;strokeColor=none;fillColor=none;align=center;verticalAlign=middle;whiteSpace=wrap;rounded=0;" vertex="1" parent="1">
          <mxGeometry x="270" y="80" width="230" height="20" as="geometry" />
        </mxCell>
        <mxCell id="QmwEEpF4zXc-ardIhflR-31" style="edgeStyle=none;rounded=0;orthogonalLoop=1;jettySize=auto;html=1;entryX=0;entryY=0.5;entryDx=0;entryDy=0;" edge="1" parent="1" source="QmwEEpF4zXc-ardIhflR-3" target="QmwEEpF4zXc-ardIhflR-27">
          <mxGeometry relative="1" as="geometry" />
        </mxCell>
        <mxCell id="QmwEEpF4zXc-ardIhflR-32" style="edgeStyle=none;rounded=0;orthogonalLoop=1;jettySize=auto;html=1;entryX=0;entryY=0.5;entryDx=0;entryDy=0;" edge="1" parent="1" source="QmwEEpF4zXc-ardIhflR-3" target="QmwEEpF4zXc-ardIhflR-28">
          <mxGeometry relative="1" as="geometry" />
        </mxCell>
        <mxCell id="QmwEEpF4zXc-ardIhflR-33" style="edgeStyle=none;rounded=0;orthogonalLoop=1;jettySize=auto;html=1;entryX=0;entryY=0.5;entryDx=0;entryDy=0;exitX=1;exitY=1;exitDx=0;exitDy=0;" edge="1" parent="1" source="QmwEEpF4zXc-ardIhflR-3" target="QmwEEpF4zXc-ardIhflR-30">
          <mxGeometry relative="1" as="geometry" />
        </mxCell>
        <mxCell id="QmwEEpF4zXc-ardIhflR-34" style="edgeStyle=none;rounded=0;orthogonalLoop=1;jettySize=auto;html=1;entryX=0;entryY=0.5;entryDx=0;entryDy=0;" edge="1" parent="1" source="QmwEEpF4zXc-ardIhflR-3" target="QmwEEpF4zXc-ardIhflR-29">
          <mxGeometry relative="1" as="geometry" />
        </mxCell>
        <mxCell id="QmwEEpF4zXc-ardIhflR-3" value="帖子管理" style="ellipse;whiteSpace=wrap;html=1;" vertex="1" parent="1">
          <mxGeometry x="314" y="460" width="100" height="60" as="geometry" />
        </mxCell>
        <mxCell id="QmwEEpF4zXc-ardIhflR-16" value="" style="rounded=0;orthogonalLoop=1;jettySize=auto;html=1;entryX=0;entryY=0.5;entryDx=0;entryDy=0;" edge="1" parent="1" source="QmwEEpF4zXc-ardIhflR-4" target="QmwEEpF4zXc-ardIhflR-15">
          <mxGeometry relative="1" as="geometry" />
        </mxCell>
        <mxCell id="QmwEEpF4zXc-ardIhflR-20" style="edgeStyle=none;rounded=0;orthogonalLoop=1;jettySize=auto;html=1;entryX=0;entryY=0.5;entryDx=0;entryDy=0;" edge="1" parent="1" source="QmwEEpF4zXc-ardIhflR-4" target="QmwEEpF4zXc-ardIhflR-17">
          <mxGeometry relative="1" as="geometry" />
        </mxCell>
        <mxCell id="QmwEEpF4zXc-ardIhflR-21" style="edgeStyle=none;rounded=0;orthogonalLoop=1;jettySize=auto;html=1;exitX=1;exitY=0.5;exitDx=0;exitDy=0;entryX=0;entryY=0.5;entryDx=0;entryDy=0;" edge="1" parent="1" source="QmwEEpF4zXc-ardIhflR-4" target="QmwEEpF4zXc-ardIhflR-19">
          <mxGeometry relative="1" as="geometry" />
        </mxCell>
        <mxCell id="QmwEEpF4zXc-ardIhflR-22" style="edgeStyle=none;rounded=0;orthogonalLoop=1;jettySize=auto;html=1;entryX=0;entryY=0.5;entryDx=0;entryDy=0;" edge="1" parent="1" source="QmwEEpF4zXc-ardIhflR-4" target="QmwEEpF4zXc-ardIhflR-18">
          <mxGeometry relative="1" as="geometry" />
        </mxCell>
        <mxCell id="QmwEEpF4zXc-ardIhflR-4" value="分享管理" style="ellipse;whiteSpace=wrap;html=1;" vertex="1" parent="1">
          <mxGeometry x="310" y="260" width="100" height="50" as="geometry" />
        </mxCell>
        <mxCell id="QmwEEpF4zXc-ardIhflR-40" style="edgeStyle=none;rounded=0;orthogonalLoop=1;jettySize=auto;html=1;entryX=-0.004;entryY=0.676;entryDx=0;entryDy=0;entryPerimeter=0;" edge="1" parent="1" source="QmwEEpF4zXc-ardIhflR-5" target="QmwEEpF4zXc-ardIhflR-38">
          <mxGeometry relative="1" as="geometry" />
        </mxCell>
        <mxCell id="QmwEEpF4zXc-ardIhflR-41" style="edgeStyle=none;rounded=0;orthogonalLoop=1;jettySize=auto;html=1;entryX=0;entryY=0.5;entryDx=0;entryDy=0;" edge="1" parent="1" source="QmwEEpF4zXc-ardIhflR-5" target="QmwEEpF4zXc-ardIhflR-39">
          <mxGeometry relative="1" as="geometry" />
        </mxCell>
        <mxCell id="QmwEEpF4zXc-ardIhflR-5" value="评论管理" style="ellipse;whiteSpace=wrap;html=1;" vertex="1" parent="1">
          <mxGeometry x="320" y="700" width="100" height="50" as="geometry" />
        </mxCell>
        <mxCell id="QmwEEpF4zXc-ardIhflR-6" style="edgeStyle=none;rounded=0;orthogonalLoop=1;jettySize=auto;html=1;exitX=1;exitY=0.5;exitDx=0;exitDy=0;" edge="1" parent="1" source="QmwEEpF4zXc-ardIhflR-9" target="QmwEEpF4zXc-ardIhflR-3">
          <mxGeometry x="54" y="155" as="geometry" />
        </mxCell>
        <mxCell id="QmwEEpF4zXc-ardIhflR-7" style="edgeStyle=none;rounded=0;orthogonalLoop=1;jettySize=auto;html=1;entryX=0;entryY=0.5;entryDx=0;entryDy=0;" edge="1" parent="1" source="QmwEEpF4zXc-ardIhflR-9" target="QmwEEpF4zXc-ardIhflR-4">
          <mxGeometry x="54" y="155" as="geometry" />
        </mxCell>
        <mxCell id="QmwEEpF4zXc-ardIhflR-8" style="edgeStyle=none;rounded=0;orthogonalLoop=1;jettySize=auto;html=1;entryX=0;entryY=0.5;entryDx=0;entryDy=0;" edge="1" parent="1" source="QmwEEpF4zXc-ardIhflR-9" target="QmwEEpF4zXc-ardIhflR-5">
          <mxGeometry x="54" y="155" as="geometry" />
        </mxCell>
        <mxCell id="QmwEEpF4zXc-ardIhflR-42" style="edgeStyle=none;rounded=0;orthogonalLoop=1;jettySize=auto;html=1;entryX=-0.032;entryY=0.39;entryDx=0;entryDy=0;entryPerimeter=0;" edge="1" parent="1" source="QmwEEpF4zXc-ardIhflR-9" target="QmwEEpF4zXc-ardIhflR-43">
          <mxGeometry relative="1" as="geometry">
            <mxPoint x="350" y="680" as="targetPoint" />
          </mxGeometry>
        </mxCell>
        <mxCell id="QmwEEpF4zXc-ardIhflR-9" value="我的空间管理" style="ellipse;whiteSpace=wrap;html=1;" vertex="1" parent="1">
          <mxGeometry x="80" y="490" width="110" height="60" as="geometry" />
        </mxCell>
        <mxCell id="QmwEEpF4zXc-ardIhflR-11" value="《include》" style="text;html=1;strokeColor=none;fillColor=none;align=center;verticalAlign=middle;whiteSpace=wrap;rounded=0;" vertex="1" parent="1">
          <mxGeometry x="220" y="495" width="60" height="20" as="geometry" />
        </mxCell>
        <mxCell id="QmwEEpF4zXc-ardIhflR-12" value="《include》" style="text;html=1;strokeColor=none;fillColor=none;align=center;verticalAlign=middle;whiteSpace=wrap;rounded=0;" vertex="1" parent="1">
          <mxGeometry x="200" y="310" width="70" height="30" as="geometry" />
        </mxCell>
        <mxCell id="QmwEEpF4zXc-ardIhflR-13" value="《include》" style="text;html=1;strokeColor=none;fillColor=none;align=center;verticalAlign=middle;whiteSpace=wrap;rounded=0;" vertex="1" parent="1">
          <mxGeometry x="215" y="550" width="70" height="30" as="geometry" />
        </mxCell>
        <mxCell id="QmwEEpF4zXc-ardIhflR-15" value="新建分享" style="ellipse;whiteSpace=wrap;html=1;" vertex="1" parent="1">
          <mxGeometry x="480" y="160" width="100" height="50" as="geometry" />
        </mxCell>
        <mxCell id="QmwEEpF4zXc-ardIhflR-17" value="删除分享" style="ellipse;whiteSpace=wrap;html=1;" vertex="1" parent="1">
          <mxGeometry x="480" y="220" width="100" height="50" as="geometry" />
        </mxCell>
        <mxCell id="QmwEEpF4zXc-ardIhflR-18" value="查找分享" style="ellipse;whiteSpace=wrap;html=1;" vertex="1" parent="1">
          <mxGeometry x="480" y="340" width="100" height="50" as="geometry" />
        </mxCell>
        <mxCell id="QmwEEpF4zXc-ardIhflR-19" value="修改分享" style="ellipse;whiteSpace=wrap;html=1;" vertex="1" parent="1">
          <mxGeometry x="480" y="280" width="100" height="50" as="geometry" />
        </mxCell>
        <mxCell id="QmwEEpF4zXc-ardIhflR-27" value="新建帖子" style="ellipse;whiteSpace=wrap;html=1;" vertex="1" parent="1">
          <mxGeometry x="480" y="405" width="100" height="50" as="geometry" />
        </mxCell>
        <mxCell id="QmwEEpF4zXc-ardIhflR-28" value="删除帖子" style="ellipse;whiteSpace=wrap;html=1;" vertex="1" parent="1">
          <mxGeometry x="480" y="465" width="100" height="50" as="geometry" />
        </mxCell>
        <mxCell id="QmwEEpF4zXc-ardIhflR-29" value="查找帖子" style="ellipse;whiteSpace=wrap;html=1;" vertex="1" parent="1">
          <mxGeometry x="480" y="585" width="100" height="50" as="geometry" />
        </mxCell>
        <mxCell id="QmwEEpF4zXc-ardIhflR-30" value="修改帖子" style="ellipse;whiteSpace=wrap;html=1;" vertex="1" parent="1">
          <mxGeometry x="480" y="525" width="100" height="50" as="geometry" />
        </mxCell>
        <mxCell id="QmwEEpF4zXc-ardIhflR-38" value="回复评论&lt;span style=&quot;color: rgba(0 , 0 , 0 , 0) ; font-family: monospace ; font-size: 0px&quot;&gt;%3CmxGraphModel%3E%3Croot%3E%3CmxCell%20id%3D%220%22%2F%3E%3CmxCell%20id%3D%221%22%20parent%3D%220%22%2F%3E%3CmxCell%20id%3D%222%22%20value%3D%22%E8%AF%84%E8%AE%BA%E7%AE%A1%E7%90%86%22%20style%3D%22ellipse%3BwhiteSpace%3Dwrap%3Bhtml%3D1%3B%22%20vertex%3D%221%22%20parent%3D%221%22%3E%3CmxGeometry%20x%3D%22320%22%20y%3D%22750%22%20width%3D%22100%22%20height%3D%2250%22%20as%3D%22geometry%22%2F%3E%3C%2FmxCell%3E%3C%2Froot%3E%3C%2FmxGraphModel%3E&lt;/span&gt;" style="ellipse;whiteSpace=wrap;html=1;" vertex="1" parent="1">
          <mxGeometry x="480" y="670" width="100" height="50" as="geometry" />
        </mxCell>
        <mxCell id="QmwEEpF4zXc-ardIhflR-39" value="删除评论" style="ellipse;whiteSpace=wrap;html=1;" vertex="1" parent="1">
          <mxGeometry x="480" y="770" width="100" height="50" as="geometry" />
        </mxCell>
        <mxCell id="QmwEEpF4zXc-ardIhflR-43" value="通知管理" style="ellipse;whiteSpace=wrap;html=1;" vertex="1" parent="1">
          <mxGeometry x="320" y="570" width="100" height="60" as="geometry" />
        </mxCell>
        <mxCell id="QmwEEpF4zXc-ardIhflR-44" value="《include》" style="text;html=1;strokeColor=none;fillColor=none;align=center;verticalAlign=middle;whiteSpace=wrap;rounded=0;" vertex="1" parent="1">
          <mxGeometry x="190" y="630" width="70" height="30" as="geometry" />
        </mxCell>
      </root>
    </mxGraphModel>
  </diagram>
</mxfile>
